<svg id="visual" viewBox="0 0 540 960" width="540" height="960" xmlns="http://www.w3.org/2000/svg" xmlns:xlink="http://www.w3.org/1999/xlink" version="1.1"><rect x="0" y="0" width="540" height="960" fill="#001220"></rect><defs><linearGradient id="grad1_0" x1="0%" y1="0%" x2="100%" y2="100%"><stop offset="30%" stop-color="#6600ff" stop-opacity="1"></stop><stop offset="70%" stop-color="#6600ff" stop-opacity="1"></stop></linearGradient></defs><defs><linearGradient id="grad1_1" x1="0%" y1="0%" x2="100%" y2="100%"><stop offset="30%" stop-color="#6600ff" stop-opacity="1"></stop><stop offset="70%" stop-color="#003299" stop-opacity="1"></stop></linearGradient></defs><defs><linearGradient id="grad1_2" x1="0%" y1="0%" x2="100%" y2="100%"><stop offset="30%" stop-color="#001220" stop-opacity="1"></stop><stop offset="70%" stop-color="#003299" stop-opacity="1"></stop></linearGradient></defs><defs><linearGradient id="grad2_0" x1="0%" y1="0%" x2="100%" y2="100%"><stop offset="30%" stop-color="#6600ff" stop-opacity="1"></stop><stop offset="70%" stop-color="#6600ff" stop-opacity="1"></stop></linearGradient></defs><defs><linearGradient id="grad2_1" x1="0%" y1="0%" x2="100%" y2="100%"><stop offset="30%" stop-color="#003299" stop-opacity="1"></stop><stop offset="70%" stop-color="#6600ff" stop-opacity="1"></stop></linearGradient></defs><defs><linearGradient id="grad2_2" x1="0%" y1="0%" x2="100%" y2="100%"><stop offset="30%" stop-color="#003299" stop-opacity="1"></stop><stop offset="70%" stop-color="#001220" stop-opacity="1"></stop></linearGradient></defs><g transform="translate(540, 0)"><path d="M0 270C-60.1 270.4 -120.2 270.7 -135 233.8C-149.8 196.9 -119.3 122.7 -134.2 77.5C-149.2 32.3 -209.6 16.2 -270 0L0 0Z" fill="#00255b"></path><path d="M0 180C-40.1 180.2 -80.1 180.5 -90 155.9C-99.9 131.3 -79.5 81.8 -89.5 51.7C-99.5 21.5 -139.7 10.8 -180 0L0 0Z" fill="#0034d3"></path><path d="M0 90C-20 90.1 -40.1 90.2 -45 77.9C-49.9 65.6 -39.8 40.9 -44.7 25.8C-49.7 10.8 -69.9 5.4 -90 0L0 0Z" fill="#6600ff"></path></g><g transform="translate(0, 960)"><path d="M0 -270C51 -265.1 102 -260.2 135 -233.8C168 -207.4 183.1 -159.6 202.6 -117C222.2 -74.4 246.1 -37.2 270 0L0 0Z" fill="#00255b"></path><path d="M0 -180C34 -176.7 68 -173.5 90 -155.9C112 -138.3 122.1 -106.4 135.1 -78C148.1 -49.6 164.1 -24.8 180 0L0 0Z" fill="#0034d3"></path><path d="M0 -90C17 -88.4 34 -86.7 45 -77.9C56 -69.1 61 -53.2 67.5 -39C74.1 -24.8 82 -12.4 90 0L0 0Z" fill="#6600ff"></path></g></svg>